<svg width="73" height="72" viewBox="0 0 73 72" fill="none" xmlns="http://www.w3.org/2000/svg">
<rect x="0.5" width="72" height="72" rx="36" fill="#B08CBC"/>
<g filter="url(#filter0_i_189_575)">
<rect x="6.5" y="6" width="60" height="60" rx="30" fill="white"/>
</g>
<path d="M49.0942 37.4167V38.8333H47.8617C46.8134 38.8333 45.9634 39.6833 45.9634 40.7458V41.1708C45.9634 42.2333 45.1134 43.0833 44.0509 43.0833C43.0026 43.0833 42.1525 42.2333 42.1525 41.1708V40.7458C42.1525 39.6833 41.2884 38.8333 40.2401 38.8333C39.1917 38.8333 38.3417 39.6833 38.3417 40.7458V41.1708C38.3417 42.2333 37.4776 43.0833 36.4292 43.0833C35.3809 43.0833 34.5167 42.2333 34.5167 41.1708V40.7458C34.5167 39.6833 33.6667 38.8333 32.6184 38.8333C31.5701 38.8333 30.7059 39.6833 30.7059 40.7458V41.1708C30.7059 42.2333 29.8559 43.0833 28.8076 43.0833C27.7451 43.0833 26.8951 42.2333 26.8951 41.1708V40.7175C26.8951 39.6692 26.0592 38.8192 25.0251 38.805H23.9059V37.4167C23.9059 35.4617 25.3792 33.8042 27.3767 33.3225C27.7734 33.2233 28.1842 33.1667 28.6234 33.1667H44.3767C44.8159 33.1667 45.2267 33.2233 45.6234 33.3225C47.6209 33.8042 49.0942 35.4617 49.0942 37.4167Z" fill="#74278F"/>
<path opacity="0.4" d="M45.6234 29.1575V33.3225C45.2267 33.2233 44.8159 33.1667 44.3767 33.1667H28.6234C28.1842 33.1667 27.7734 33.2233 27.3767 33.3225V29.1575C27.3767 27.4575 28.9067 26.0833 30.805 26.0833H42.195C44.0934 26.0833 45.6234 27.4575 45.6234 29.1575Z" fill="#74278F" fill-opacity="0.97"/>
<path d="M31.8959 24.0292V26.0975H30.805C30.4367 26.0975 30.0967 26.14 29.7709 26.225V24.0292C29.7709 23.5333 30.2525 23.1083 30.8334 23.1083C31.4142 23.1083 31.8959 23.5333 31.8959 24.0292Z" fill="#74278F" fill-opacity="0.97"/>
<path d="M43.2291 23.7175V26.225C42.9033 26.1258 42.5633 26.0833 42.195 26.0833H41.1041V23.7175C41.1041 23.1367 41.5858 22.655 42.1666 22.655C42.7475 22.655 43.2291 23.1367 43.2291 23.7175Z" fill="#74278F" fill-opacity="0.97"/>
<path d="M37.5625 22.995V26.0833H35.4375V22.995C35.4375 22.3575 35.9192 21.8333 36.5 21.8333C37.0808 21.8333 37.5625 22.3575 37.5625 22.995Z" fill="#74278F" fill-opacity="0.97"/>
<path opacity="0.4" d="M49.6042 48.0417H49.0942V38.8333H47.8617C46.8134 38.8333 45.9634 39.6833 45.9634 40.7458V41.1708C45.9634 42.2333 45.1134 43.0833 44.0509 43.0833C43.0025 43.0833 42.1525 42.2333 42.1525 41.1708V40.7458C42.1525 39.6833 41.2884 38.8333 40.24 38.8333C39.1917 38.8333 38.3417 39.6833 38.3417 40.7458V41.1708C38.3417 42.2333 37.4775 43.0833 36.4292 43.0833C35.3809 43.0833 34.5167 42.2333 34.5167 41.1708V40.7458C34.5167 39.6833 33.6667 38.8333 32.6184 38.8333C31.57 38.8333 30.7059 39.6833 30.7059 40.7458V41.1708C30.7059 42.2333 29.8559 43.0833 28.8075 43.0833C27.745 43.0833 26.895 42.2333 26.895 41.1708V40.7175C26.895 39.6692 26.0592 38.8192 25.025 38.805H23.9059V48.0417H23.3959C22.815 48.0417 22.3334 48.5233 22.3334 49.1042C22.3334 49.685 22.815 50.1667 23.3959 50.1667H23.9059H49.0942H49.6042C50.185 50.1667 50.6667 49.685 50.6667 49.1042C50.6667 48.5233 50.185 48.0417 49.6042 48.0417Z" fill="#74278F" fill-opacity="0.97"/>
<path d="M34.5 36H38.5" stroke="#E9DD9F" stroke-width="1.5" stroke-linecap="round" stroke-linejoin="round"/>
<path d="M36.5 38V34" stroke="#E9DD9F" stroke-width="1.5" stroke-linecap="round" stroke-linejoin="round"/>
<defs>
<filter id="filter0_i_189_575" x="6.5" y="6" width="62" height="63" filterUnits="userSpaceOnUse" color-interpolation-filters="sRGB">
<feFlood flood-opacity="0" result="BackgroundImageFix"/>
<feBlend mode="normal" in="SourceGraphic" in2="BackgroundImageFix" result="shape"/>
<feColorMatrix in="SourceAlpha" type="matrix" values="0 0 0 0 0 0 0 0 0 0 0 0 0 0 0 0 0 0 127 0" result="hardAlpha"/>
<feMorphology radius="2" operator="erode" in="SourceAlpha" result="effect1_innerShadow_189_575"/>
<feOffset dx="2" dy="3"/>
<feGaussianBlur stdDeviation="2.5"/>
<feComposite in2="hardAlpha" operator="arithmetic" k2="-1" k3="1"/>
<feColorMatrix type="matrix" values="0 0 0 0 0.454902 0 0 0 0 0.152941 0 0 0 0 0.560784 0 0 0 0.1 0"/>
<feBlend mode="normal" in2="shape" result="effect1_innerShadow_189_575"/>
</filter>
</defs>
</svg>
