<svg width="39" height="38" viewBox="0 0 39 38" fill="none" xmlns="http://www.w3.org/2000/svg">
<g filter="url(#filter0_d_39_1414)">
<rect x="2.5" y="1" width="30" height="30" rx="5" fill="white"/>
<path d="M14.5547 6.85025C14.3275 6.85078 14.1028 6.89655 13.8936 6.98502C13.6842 7.07353 13.4946 7.20316 13.3359 7.36588C13.1774 7.52848 13.053 7.72097 12.9697 7.93228C12.8868 8.14291 12.8458 8.3681 12.8506 8.59439V8.59537C12.8527 8.79295 12.8965 8.98842 12.9775 9.16861C13.0383 9.30354 13.1193 9.42809 13.2178 9.53775L13.3232 9.64322C13.7907 10.0585 14.4045 10.3338 15.0088 10.5172C15.6145 10.7011 16.2214 10.7955 16.6846 10.8444L16.8691 10.8639L16.8496 10.6794C16.8002 10.2181 16.7049 9.61176 16.5215 9.0065C16.3385 8.40293 16.0644 7.7898 15.6514 7.32291L15.6504 7.32095L15.5449 7.21646C15.4352 7.11802 15.3107 7.03696 15.1758 6.97623C14.9956 6.89514 14.8001 6.85238 14.6025 6.85025H14.5547ZM20.4043 6.85123C20.2069 6.8534 20.0121 6.8962 19.832 6.9772C19.6969 7.03802 19.5717 7.11881 19.4619 7.21744L19.3564 7.32291C18.9617 7.76652 18.6892 8.36051 18.501 8.95963C18.3123 9.56038 18.205 10.1774 18.1484 10.6764L18.1279 10.8629L18.3135 10.8424C18.7766 10.7931 19.3846 10.6989 19.9912 10.5153C20.5963 10.3321 21.2112 10.057 21.6787 9.64322L21.9746 9.3815H21.9023C21.9473 9.31511 21.9881 9.24586 22.0215 9.17252C22.1027 8.99385 22.146 8.79942 22.1494 8.60318C22.1553 8.37666 22.1163 8.1513 22.0342 7.94009C21.9518 7.72826 21.8279 7.53511 21.6699 7.37173C21.512 7.20842 21.3231 7.0783 21.1143 6.98892C20.9053 6.89953 20.6804 6.85265 20.4531 6.85123H20.4043ZM9.40039 16.6003H9.25C8.89196 16.6003 8.5481 16.4579 8.29492 16.2047C8.04185 15.9516 7.90039 15.6076 7.90039 15.2497V12.2497C7.90048 11.8919 8.04203 11.5486 8.29492 11.2956C8.5481 11.0424 8.89196 10.9001 9.25 10.9001H12.9307L12.6387 10.6383C12.6032 10.6066 12.5545 10.5662 12.5273 10.5426H12.5264C12.258 10.3037 12.0424 10.0114 11.8916 9.68521C11.7405 9.35839 11.6583 9.00416 11.6504 8.6442V8.64322L11.6494 8.49478C11.6568 8.14881 11.7256 7.80643 11.8535 7.48404C11.9997 7.1157 12.2198 6.78091 12.5 6.50064C12.7802 6.22037 13.1151 6.00047 13.4834 5.85416C13.8515 5.70794 14.2456 5.6385 14.6416 5.65005H14.6426C15.0029 5.65782 15.3584 5.74006 15.6855 5.89127C16.0123 6.04237 16.3048 6.25889 16.5439 6.52798C16.8835 6.92172 17.1597 7.36657 17.3623 7.84537L17.5 8.17154L17.6377 7.84537C17.8402 7.36676 18.1158 6.9216 18.4551 6.52798L18.4561 6.52896C18.6953 6.25965 18.9875 6.04246 19.3145 5.89127C19.6416 5.74006 19.9971 5.65782 20.3574 5.65005H20.3584C20.7544 5.6385 21.1484 5.70794 21.5166 5.85416C21.8849 6.00047 22.2198 6.22037 22.5 6.50064C22.7802 6.78091 23.0003 7.1157 23.1465 7.48404C23.2926 7.85233 23.3613 8.24716 23.3496 8.64322V8.6442C23.3417 9.00416 23.2595 9.35839 23.1084 9.68521C22.9573 10.012 22.7408 10.3044 22.4717 10.5436L22.4697 10.5456C22.4372 10.5756 22.405 10.6009 22.3643 10.6354L22.0518 10.9001H25.75C26.108 10.9001 26.4519 11.0424 26.7051 11.2956C26.958 11.5486 27.0995 11.8919 27.0996 12.2497V15.2497C27.0996 15.6076 26.9581 15.9516 26.7051 16.2047C26.4519 16.4579 26.108 16.6003 25.75 16.6003H25.5996V22.7497C25.5996 23.1076 25.4581 23.4516 25.2051 23.7047C24.9519 23.9579 24.608 24.1003 24.25 24.1003H18.625C18.5653 24.1003 18.508 24.076 18.4658 24.0338C18.4237 23.9917 18.4004 23.9343 18.4004 23.8747V15.4001H25.9004V12.1003H18.0996V15.1003H16.9004V12.1003H9.09961V15.4001H16.5996V23.8747C16.5996 23.9343 16.5763 23.9917 16.5342 24.0338C16.492 24.076 16.4347 24.1003 16.375 24.1003H10.75C10.392 24.1003 10.0481 23.9579 9.79492 23.7047C9.54185 23.4516 9.40039 23.1076 9.40039 22.7497V16.6003Z" fill="#6E2588" stroke="#CCBA5B" stroke-width="0.3"/>
</g>
<defs>
<filter id="filter0_d_39_1414" x="0.5" y="0" width="38" height="38" filterUnits="userSpaceOnUse" color-interpolation-filters="sRGB">
<feFlood flood-opacity="0" result="BackgroundImageFix"/>
<feColorMatrix in="SourceAlpha" type="matrix" values="0 0 0 0 0 0 0 0 0 0 0 0 0 0 0 0 0 0 127 0" result="hardAlpha"/>
<feOffset dx="2" dy="3"/>
<feGaussianBlur stdDeviation="2"/>
<feComposite in2="hardAlpha" operator="out"/>
<feColorMatrix type="matrix" values="0 0 0 0 0 0 0 0 0 0 0 0 0 0 0 0 0 0 0.15 0"/>
<feBlend mode="normal" in2="BackgroundImageFix" result="effect1_dropShadow_39_1414"/>
<feBlend mode="normal" in="SourceGraphic" in2="effect1_dropShadow_39_1414" result="shape"/>
</filter>
</defs>
</svg>
