<svg width="24" height="24" viewBox="0 0 24 24" fill="none" xmlns="http://www.w3.org/2000/svg">
<g clip-path="url(#clip0_40_942)">
<path d="M23.714 12.2245C23.714 11.2413 23.6342 10.5237 23.4616 9.77963H12.2336V14.2176H18.8241C18.6913 15.3205 17.9738 16.9815 16.3793 18.0976L16.3569 18.2461L19.907 20.9963L20.1529 21.0209C22.4118 18.9347 23.714 15.8653 23.714 12.2245Z" fill="#4285F4"/>
<path d="M12.2336 23.9176C15.4624 23.9176 18.1731 22.8545 20.153 21.0209L16.3793 18.0976C15.3695 18.8018 14.0141 19.2934 12.2336 19.2934C9.07121 19.2934 6.38715 17.2074 5.43035 14.324L5.29011 14.3359L1.59869 17.1927L1.55042 17.3269C3.51695 21.2334 7.55637 23.9176 12.2336 23.9176Z" fill="#34A853"/>
<path d="M5.43035 14.324C5.17789 13.5799 5.03179 12.7826 5.03179 11.9588C5.03179 11.1349 5.1779 10.3377 5.41707 9.59359L5.41038 9.43511L1.6727 6.53239L1.55041 6.59056C0.73991 8.21166 0.274841 10.0321 0.274841 11.9588C0.274841 13.8855 0.73991 15.7058 1.55041 17.3269L5.43035 14.324Z" fill="#FBBC05"/>
<path d="M12.2336 4.62403C14.4792 4.62403 15.9939 5.59402 16.8577 6.40461L20.2327 3.10928C18.1599 1.1826 15.4624 0 12.2336 0C7.55637 0 3.51695 2.68406 1.55042 6.59056L5.41707 9.59359C6.38715 6.7102 9.07121 4.62403 12.2336 4.62403Z" fill="#EB4335"/>
</g>
<defs>
<clipPath id="clip0_40_942">
<rect width="23.46" height="24" fill="white" transform="translate(0.27002)"/>
</clipPath>
</defs>
</svg>
