<svg width="28" height="27" viewBox="0 0 28 27" fill="none" xmlns="http://www.w3.org/2000/svg">
<g filter="url(#filter0_d_39_1410)">
<rect x="2.5" y="1" width="19" height="19" rx="5" fill="white"/>
<path d="M18.2375 10.1313C18.025 6.50626 14.7312 3.71251 10.9375 4.33751C8.325 4.76876 6.23125 6.8875 5.825 9.5C5.5875 11.0125 5.90001 12.4438 6.58126 13.625L6.025 15.6938C5.9 16.1625 6.33124 16.5875 6.79374 16.4563L8.83125 15.8938C9.75625 16.4375 10.8375 16.75 11.9937 16.75C15.5187 16.75 18.4437 13.6438 18.2375 10.1313ZM15.05 12.825C14.9938 12.9375 14.925 13.0438 14.8375 13.1438C14.6812 13.3125 14.5125 13.4375 14.325 13.5125C14.1375 13.5938 13.9312 13.6313 13.7125 13.6313C13.3937 13.6313 13.05 13.5563 12.6937 13.4C12.3312 13.2438 11.975 13.0375 11.6188 12.7813C11.2563 12.5188 10.9188 12.225 10.5938 11.9063C10.2688 11.5813 9.98124 11.2375 9.71874 10.8812C9.46249 10.525 9.25625 10.1688 9.10625 9.8125C8.95625 9.45625 8.88126 9.11251 8.88126 8.78751C8.88126 8.57501 8.91875 8.36876 8.99375 8.18126C9.06875 7.98751 9.18752 7.81251 9.35627 7.65626C9.55627 7.45626 9.775 7.36251 10.0063 7.36251C10.0938 7.36251 10.1812 7.38126 10.2625 7.41876C10.3437 7.45626 10.4188 7.51251 10.475 7.59376L11.2 8.61875C11.2562 8.7 11.3 8.76875 11.325 8.8375C11.3562 8.90625 11.3687 8.96875 11.3687 9.03125C11.3687 9.10625 11.3438 9.18126 11.3 9.25626C11.2563 9.33126 11.2 9.40625 11.125 9.48125L10.8875 9.73125C10.85 9.76875 10.8375 9.80626 10.8375 9.85626C10.8375 9.88126 10.8437 9.90625 10.85 9.93125C10.8625 9.95625 10.8688 9.97501 10.875 9.99376C10.9313 10.1 11.0312 10.2312 11.1687 10.3937C11.3125 10.5562 11.4625 10.725 11.625 10.8875C11.7938 11.0563 11.9563 11.2062 12.125 11.35C12.2875 11.4875 12.425 11.5813 12.5312 11.6375C12.55 11.6438 12.5688 11.6562 12.5875 11.6625C12.6125 11.675 12.6375 11.675 12.6688 11.675C12.725 11.675 12.7625 11.6563 12.8 11.6188L13.0375 11.3813C13.1187 11.3 13.1938 11.2438 13.2625 11.2063C13.3375 11.1625 13.4063 11.1375 13.4875 11.1375C13.55 11.1375 13.6125 11.15 13.6813 11.1813C13.75 11.2125 13.825 11.25 13.9 11.3063L14.9375 12.0438C15.0188 12.1 15.075 12.1688 15.1125 12.2438C15.1437 12.325 15.1625 12.4 15.1625 12.4875C15.125 12.5938 15.1 12.7125 15.05 12.825Z" fill="#25D366"/>
</g>
<defs>
<filter id="filter0_d_39_1410" x="0.5" y="0" width="27" height="27" filterUnits="userSpaceOnUse" color-interpolation-filters="sRGB">
<feFlood flood-opacity="0" result="BackgroundImageFix"/>
<feColorMatrix in="SourceAlpha" type="matrix" values="0 0 0 0 0 0 0 0 0 0 0 0 0 0 0 0 0 0 127 0" result="hardAlpha"/>
<feOffset dx="2" dy="3"/>
<feGaussianBlur stdDeviation="2"/>
<feComposite in2="hardAlpha" operator="out"/>
<feColorMatrix type="matrix" values="0 0 0 0 0 0 0 0 0 0 0 0 0 0 0 0 0 0 0.15 0"/>
<feBlend mode="normal" in2="BackgroundImageFix" result="effect1_dropShadow_39_1410"/>
<feBlend mode="normal" in="SourceGraphic" in2="effect1_dropShadow_39_1410" result="shape"/>
</filter>
</defs>
</svg>
